<?xml version="1.0" standalone="no"?>
<!DOCTYPE svg PUBLIC "-//W3C//DTD SVG 20010904//EN"
 "http://www.w3.org/TR/2001/REC-SVG-20010904/DTD/svg10.dtd">
<svg version="1.0" xmlns="http://www.w3.org/2000/svg"
 width="213.000000pt" height="46.000000pt" viewBox="0 0 213.000000 46.000000"
 preserveAspectRatio="xMidYMid meet">

<g transform="translate(0.000000,46.000000) scale(0.100000,-0.100000)"
fill="#000000" stroke="none">
<path d="M1275 438 c-139 -49 -247 -258 -190 -368 37 -72 162 -83 179 -16 3
13 8 30 11 38 4 10 -4 13 -34 10 -31 -3 -42 0 -55 19 -20 29 -20 46 0 106 31
91 91 142 153 130 26 -5 29 -3 40 34 7 22 9 44 6 49 -8 13 -71 11 -110 -2z"/>
<path d="M1513 429 c-24 -12 -55 -35 -70 -53 -38 -45 -82 -144 -95 -213 -10
-53 -9 -65 8 -99 24 -49 71 -64 135 -45 118 35 227 246 195 375 -13 54 -100
71 -173 35z m75 -103 c5 -43 -37 -162 -68 -196 -32 -35 -66 -39 -75 -10 -7 22
17 115 42 165 39 76 95 99 101 41z"/>
<path d="M60 433 c0 -5 -9 -89 -20 -188 -27 -245 -28 -227 21 -223 l41 3 64
115 c35 63 64 106 64 95 -1 -11 -7 -64 -14 -117 l-12 -98 41 0 41 0 109 188
c60 103 115 197 123 210 15 23 15 23 -34 20 l-49 -3 -64 -118 c-35 -64 -66
-116 -67 -114 -2 1 3 45 11 97 22 141 22 140 -22 140 l-38 0 -64 -120 c-36
-66 -67 -118 -69 -116 -3 4 11 129 24 204 l5 32 -46 0 c-25 0 -45 -3 -45 -7z"/>
<path d="M515 243 c-37 -109 -69 -204 -72 -210 -3 -10 19 -13 91 -13 105 0 98
-4 120 68 7 21 4 22 -38 22 -49 0 -52 4 -36 44 8 22 16 26 50 26 37 0 42 3 56
35 21 50 18 55 -26 55 -46 0 -45 -1 -26 45 14 33 18 35 64 35 48 0 49 1 60 39
7 21 12 41 12 45 0 3 -42 6 -94 6 l-94 0 -67 -197z"/>
<path d="M845 423 c-9 -25 -135 -395 -135 -400 0 -1 38 -3 83 -3 98 0 157 24
195 80 26 39 30 101 7 120 -14 12 -12 15 12 31 32 22 63 73 63 107 0 59 -42
82 -150 82 -55 0 -69 -3 -75 -17z m114 -72 c21 -13 6 -56 -24 -69 -49 -22 -51
-17 -24 56 9 23 25 28 48 13z m-55 -167 c38 -15 -8 -84 -56 -84 -15 0 -18 5
-12 23 21 69 29 76 68 61z"/>
<path d="M1743 230 l-72 -210 49 0 48 0 40 118 39 117 18 -117 18 -118 47 0
c45 0 49 2 60 32 23 64 130 381 130 385 0 2 -21 3 -47 1 l-47 -3 -36 -107
c-19 -59 -38 -107 -41 -108 -3 0 -11 39 -18 88 -19 138 -16 132 -70 132 l-46
0 -72 -210z"/>
</g>
</svg>